With: Chris Hemsworth, Adrianne Palicki and Josh Hutcherson

Een Amerikaanse stad ontwaakt bij de surrealistisch aanblik van buitenlandse parachutisten die uit de lucht vallen. De Verenigde Staten blijkt binnengevallen te zijn en hun stad het aanvankelijke doelwit. Al snel worden de burgers gevangen genomen en is de stad door vijandelijke troepen bezet. Vastbesloten om terug te vechten zoekt een groep jonge patriotten hun toevlucht in de omliggende bossen, waar ze zich reorganiseren tot een guerrilla groep. Geïnspireerd door hun middelbare school mascotte noemen ze zichzelf de Wolverines, met als doel om elkaar te beschermen, hun stad te bevrijden en hun vrijheid terug te nemen.

A group of teenagers look to save their town from an invasion of North Korean soldiers. 
 
http://www.imdb.com/title/tt1234719	

------------------------ Dutch Friends ------------------------
---------------------------------------------------------------
- Bezoek ook eens mijn vrienden op:  http://www.Film-Test.nl --
----- voor mijn Nederlandse Sync. ondertitels ---- en meer ----
------- http://www.Film-Test.nl ---- Over Films en meer -------
---------------------------------------------------------------

General:

Complete name                    : Red DawnRed Dawn.avi
Format                           : AVI
Format/Info                      : Audio Video Interleave
File size                        : 1.64 GiB
Duration                         : 1h 33mn
Overall bit rate                 : 2 510 Kbps

Video:

Format                           : MPEG-4 Visual
Format profile                   : Simple@L3
Format settings, BVOP            : No
Format settings, QPel            : No
Format settings, GMC             : No warppoints
Format settings, Matrix          : Default (H.263)
Codec ID                         : XVID
Codec ID/Hint                    : XviD
Duration                         : 1h 33mn
Bit rate                         : 2 052 Kbps
Width                            : 720 pixels
Height                           : 304 pixels
Display aspect ratio             : 2.35:1
Frame rate                       : 23.976 fps
Color space                      : YUV
Chroma subsampling               : 4:2:0
Bit depth                        : 8 bits
Scan type                        : Progressive
Compression mode                 : Lossy
Bits/(Pixel*Frame)               : 0.391
Stream size                      : 1.34 GiB (82%)
Writing library                  : XviD 1.1.2 (UTC 2006-11-01)

Audio:

Format                           : AC-3
Format/Info                      : Audio Coding 3
Mode extension                   : CM (complete main)
Codec ID                         : 2000
Duration                         : 1h 33mn
Bit rate mode                    : Constant
Bit rate                         : 448 Kbps
Channel(s)                       : 6 channels
Channel positions                : Front: L C R, Side: L R, LFE
Sampling rate                    : 48.0 KHz
Bit depth                        : 16 bits
Compression mode                 : Lossy
Stream size                      : 299 MiB (18%)
Alignment                        : Aligned on interleaves
Interleave, duration             : 32 ms (0.77 video frame)
Interleave, preload duration     : 256 ms